<?xml version="1.0" standalone="no"?>
<!DOCTYPE svg PUBLIC "-//W3C//DTD SVG 20010904//EN"
 "http://www.w3.org/TR/2001/REC-SVG-20010904/DTD/svg10.dtd">
<svg version="1.0" xmlns="http://www.w3.org/2000/svg"
 width="700.000000pt" height="700.000000pt" viewBox="0 0 700.000000 700.000000"
 preserveAspectRatio="xMidYMid meet">
<metadata>
Created by potrace 1.11, written by Peter Selinger 2001-2013
</metadata>
<g transform="translate(0.000000,700.000000) scale(0.100000,-0.100000)"
fill="#000000" stroke="none">
<path d="M2444 5436 c-158 -73 -168 -294 -18 -382 30 -17 63 -28 96 -30 28 -1
54 -6 58 -11 4 -4 38 -64 75 -133 37 -69 82 -152 100 -185 18 -33 53 -99 79
-146 l46 -86 -26 -12 c-73 -33 -240 -184 -314 -283 -19 -26 -38 -48 -41 -48
-3 0 -15 8 -27 18 -11 9 -110 87 -221 172 l-200 155 0 44 c-2 133 -148 205
-251 123 -42 -35 -64 -92 -55 -146 15 -96 108 -152 200 -120 37 12 40 11 74
-15 20 -15 122 -94 226 -176 105 -82 192 -150 194 -151 2 -2 -12 -41 -32 -87
-36 -87 -73 -220 -80 -295 -3 -23 -6 -45 -9 -47 -4 -5 -215 -7 -485 -6 l-191
1 -21 34 c-36 57 -95 89 -176 93 -65 4 -74 2 -117 -26 -63 -40 -98 -95 -105
-165 -22 -216 248 -327 386 -159 17 21 31 43 31 50 0 7 8 13 18 14 36 2 656
-2 658 -4 2 -1 6 -25 9 -52 4 -28 8 -57 10 -65 21 -76 23 -142 5 -146 -8 -1
-104 -37 -213 -78 l-197 -76 -28 20 c-69 51 -179 21 -220 -60 -51 -101 22
-228 130 -225 84 2 158 64 160 135 1 25 8 30 87 60 47 18 144 55 214 83 70 27
129 48 131 46 2 -2 20 -37 40 -78 62 -123 179 -266 283 -348 20 -15 47 -37 60
-48 l23 -20 -105 -106 c-100 -102 -106 -106 -137 -100 -89 19 -178 -60 -178
-157 0 -109 132 -186 227 -133 63 36 78 65 78 147 l0 72 106 111 107 110 80
-34 c45 -19 124 -44 176 -57 l96 -23 -5 -35 c-2 -19 -7 -69 -11 -110 -3 -41
-7 -82 -9 -90 -2 -8 -6 -46 -9 -85 -8 -88 -26 -239 -29 -240 -1 0 -18 -8 -38
-18 -94 -48 -105 -196 -19 -257 108 -77 250 -4 250 128 0 39 -30 98 -62 120
-19 14 -19 38 -3 162 3 19 7 60 10 90 3 30 7 71 10 90 2 19 7 60 10 90 3 30 8
75 11 100 l5 46 62 0 c126 1 271 26 372 64 15 6 29 9 30 8 2 -3 30 -128 41
-180 2 -13 19 -88 37 -168 l34 -145 -23 -21 c-28 -27 -47 -95 -39 -137 15 -68
86 -127 153 -127 36 0 107 37 126 65 27 41 35 98 20 141 -15 46 -63 92 -103
100 -26 5 -28 12 -55 126 -15 66 -29 130 -32 142 -2 12 -15 72 -29 134 -14 62
-23 117 -20 122 3 5 20 16 38 25 18 8 65 40 104 70 l73 55 30 -42 c17 -24 36
-50 43 -58 66 -84 79 -111 68 -141 -22 -64 30 -138 100 -144 59 -5 114 39 123
97 9 61 -49 128 -113 128 -33 0 -41 5 -70 48 -19 26 -53 75 -77 108 l-44 61
31 34 c81 91 169 234 209 342 12 31 25 55 29 53 4 -3 101 -21 216 -40 116 -20
221 -38 235 -40 14 -3 70 -12 125 -21 55 -10 107 -19 115 -20 8 -2 18 -4 22
-4 3 -1 12 -16 18 -35 18 -56 73 -119 131 -151 47 -26 64 -30 134 -30 63 0 90
5 126 23 109 53 170 156 163 274 -5 107 -65 197 -160 244 -117 57 -246 31
-339 -69 -47 -51 -52 -53 -85 -46 -19 4 -54 10 -78 14 -36 5 -279 45 -362 60
-14 3 -67 12 -119 20 -51 9 -97 17 -101 20 -4 2 -4 24 0 47 25 167 -23 415
-116 600 l-33 66 207 133 c114 73 215 139 224 147 14 11 21 12 32 3 25 -21
101 -21 145 1 64 31 87 78 82 170 -1 37 -63 104 -104 114 -106 26 -196 -38
-201 -143 l-3 -45 -174 -114 c-96 -63 -196 -127 -223 -143 l-49 -29 -47 57
c-26 31 -65 72 -86 92 -43 41 -168 135 -187 142 -11 3 37 84 201 342 119 186
110 175 145 175 71 0 147 77 147 151 0 62 -39 120 -99 145 -46 19 -77 18 -128
-7 -74 -36 -103 -122 -70 -202 l16 -37 -160 -253 c-88 -138 -163 -251 -167
-250 -4 1 -46 16 -94 32 -75 26 -123 37 -233 55 -11 2 -19 8 -19 12 1 5 7 41
13 79 6 39 13 79 15 90 4 24 25 151 29 183 2 13 14 29 27 35 30 16 59 55 65
90 8 39 -27 101 -65 117 -116 48 -212 -90 -126 -183 21 -22 23 -31 16 -69 -8
-40 -11 -63 -26 -155 -9 -63 -33 -186 -36 -188 -2 -2 -43 -5 -93 -8 -49 -3
-101 -8 -115 -11 -14 -3 -38 -8 -55 -12 -16 -3 -60 -15 -97 -27 -37 -11 -69
-19 -71 -16 -2 2 -34 60 -72 129 -37 69 -80 148 -95 175 -15 28 -53 96 -84
152 l-55 102 23 51 c68 146 -41 310 -204 310 -19 0 -58 -11 -86 -24z m1617
-1401 c73 -48 99 -147 59 -224 -50 -99 -167 -129 -260 -67 -53 35 -74 78 -74
148 1 144 154 224 275 143z m-903 -169 c66 -34 104 -118 84 -185 -34 -111
-153 -159 -249 -100 -70 44 -96 155 -52 226 44 71 142 98 217 59z m412 -446
c29 -15 60 -69 60 -103 0 -31 -21 -77 -44 -96 -27 -23 -87 -31 -121 -16 -90
37 -101 165 -18 212 38 22 86 23 123 3z"/>
</g>
</svg>
